<svg xmlns="http://www.w3.org/2000/svg" width="71" height="75" viewBox="0 0 71 75">
    <defs>
        <linearGradient id="a" x1="50%" x2="50%" y1="0%" y2="100%">
            <stop offset="0%" stop-color="#03B5AA"/>
            <stop offset="100%" stop-color="#7A306C"/>
        </linearGradient>
    </defs>
    <g fill="url(#a)" fill-rule="nonzero" transform="translate(-645 -1066)">
        <path d="M655.591 1081.613c.816.632 1.981.473 2.604-.356 5.479-7.296 13.788-11.48 22.798-11.48 9.01 0 17.32 4.184 22.798 11.48.366.487.919.743 1.478.743.393 0 .79-.126 1.126-.387a1.91 1.91 0 0 0 .35-2.647c-6.188-8.24-15.574-12.966-25.752-12.966-10.178 0-19.563 4.726-25.75 12.966a1.91 1.91 0 0 0 .348 2.647zM700.222 1092c0 3.308 2.655 6 5.917 6s5.917-2.692 5.917-6-2.655-6-5.917-6-5.917 2.692-5.917 6zM712.071 1099.534l-1.474-.457a1.72 1.72 0 0 0-1.546.272l-2.912 2.204-2.913-2.204a1.719 1.719 0 0 0-1.546-.272l-1.473.457c-2.35.792-3.93 3.006-3.93 5.509v8.856c0 .342.1.676.286.961l2.938 4.52v11.87c0 .966.776 1.75 1.732 1.75h9.811c.957 0 1.732-.784 1.732-1.75v-11.87l2.94-4.52c.185-.286.284-.62.284-.961v-8.856c0-2.503-1.579-4.717-3.929-5.509zM654.861 1098c3.262 0 5.917-2.692 5.917-6s-2.655-6-5.917-6-5.917 2.692-5.917 6 2.655 6 5.917 6zM660.793 1099.534l-1.473-.457a1.72 1.72 0 0 0-1.547.272l-2.912 2.204-2.912-2.204a1.719 1.719 0 0 0-1.546-.272l-1.474.457c-2.35.792-3.929 3.006-3.929 5.509v8.856c0 .342.099.676.285.961l2.939 4.52v11.87c0 .966.775 1.75 1.732 1.75h9.81c.957 0 1.733-.784 1.733-1.75v-11.87l2.938-4.52c.186-.286.285-.62.285-.961v-8.856c0-2.503-1.579-4.717-3.929-5.509z"/>
        <path d="M688.389 1083c0-4.411-3.318-8-7.396-8-4.078 0-7.396 3.589-7.396 8s3.318 8 7.396 8c4.078 0 7.396-3.589 7.396-8zM688.76 1094.7l-.012-.003-2.147-.667a.665.665 0 0 0-.822.414l-4.513 12.53a.812.812 0 0 1-1.532 0l-4.513-12.53a.667.667 0 0 0-.626-.444c-.065 0-2.34.696-2.34.696a6.735 6.735 0 0 0-4.574 6.404v13.255c0 .132.038.26.11.37l4.709 7.252v18.348a.67.67 0 0 0 .667.675h14.666a.67.67 0 0 0 .667-.675v-18.348l4.71-7.251a.681.681 0 0 0 .11-.37v-13.29c0-2.896-1.84-5.464-4.56-6.365z"/>
        <path d="M682.225 1094.296a.976.976 0 0 0-.72-.296h-2.01a.977.977 0 0 0-.72.296.917.917 0 0 0-.123 1.088l1.076 1.605-.504 4.204.992 2.61a.304.304 0 0 0 .568 0l.991-2.61-.503-4.204 1.075-1.605a.916.916 0 0 0-.122-1.088z"/>
    </g>
</svg>
