<svg xmlns="http://www.w3.org/2000/svg" width="75" height="75" viewBox="0 0 75 75">
    <defs>
        <linearGradient id="a" x1="50%" x2="50%" y1="0%" y2="100%">
            <stop offset="0%" stop-color="#17ABA9"/>
            <stop offset="100%" stop-color="#7A306C"/>
        </linearGradient>
    </defs>
    <path fill="url(#a)" fill-rule="nonzero" d="M74.765 33.336c-.118-1.054-1.348-1.846-2.41-1.846-3.437 0-6.487-2.018-7.766-5.139-1.306-3.196-.464-6.924 2.097-9.273.807-.737.905-1.97.228-2.828a37.108 37.108 0 0 0-5.94-6 2.087 2.087 0 0 0-2.85.23c-2.236 2.476-6.25 3.396-9.354 2.102-3.228-1.358-5.264-4.63-5.065-8.142a2.08 2.08 0 0 0-1.84-2.19 37.44 37.44 0 0 0-8.437-.023 2.087 2.087 0 0 0-1.857 2.146c.122 3.477-1.938 6.692-5.135 8.001-3.065 1.252-7.052.34-9.283-2.113a2.091 2.091 0 0 0-2.83-.239 37.248 37.248 0 0 0-6.067 5.998c-.692.861-.59 2.11.224 2.85 2.61 2.364 3.453 6.124 2.097 9.357-1.295 3.083-4.496 5.07-8.16 5.07-1.19-.04-2.036.759-2.166 1.84a37.565 37.565 0 0 0-.016 8.528c.118 1.059 1.384 1.844 2.459 1.844 3.265-.083 6.4 1.939 7.716 5.14 1.31 3.195.468 6.92-2.097 9.272a2.084 2.084 0 0 0-.228 2.826 37.243 37.243 0 0 0 5.933 6.002c.859.692 2.109.594 2.854-.226 2.243-2.482 6.258-3.4 9.349-2.103 3.236 1.354 5.273 4.625 5.073 8.139a2.083 2.083 0 0 0 1.84 2.19 37.276 37.276 0 0 0 8.438.023 2.087 2.087 0 0 0 1.856-2.148c-.126-3.475 1.938-6.69 5.131-7.996 3.086-1.26 7.056-.338 9.287 2.113a2.096 2.096 0 0 0 2.83.236 37.334 37.334 0 0 0 6.067-5.998c.692-.859.595-2.11-.224-2.85-2.61-2.363-3.457-6.124-2.1-9.355 1.274-3.041 4.356-5.083 7.671-5.083l.464.012c1.075.087 2.064-.741 2.195-1.839.33-2.82.334-5.688.016-8.528zM37.56 50.088c-6.897 0-12.508-5.611-12.508-12.509 0-6.897 5.61-12.508 12.508-12.508 6.898 0 12.509 5.611 12.509 12.508 0 6.898-5.611 12.509-12.509 12.509z"/>
</svg>
