<svg xmlns="http://www.w3.org/2000/svg" width="66" height="75" viewBox="0 0 66 75">
    <defs>
        <linearGradient id="a" x1="50%" x2="50%" y1="0%" y2="100%">
            <stop offset="0%" stop-color="#17ABA9"/>
            <stop offset="100%" stop-color="#7A306C"/>
        </linearGradient>
    </defs>
    <g fill="url(#a)" fill-rule="nonzero" transform="translate(-839 -1287)">
        <path d="M872.5 1287c-12.979 0-23.5 10.521-23.5 23.5s10.521 23.5 23.5 23.5 23.5-10.521 23.5-23.5-10.521-23.5-23.5-23.5zm-6.06 31.212v-4.237h4.177v-7.502c-.706.912-3.266 2.089-4.766 2.089v-4.354c1.294 0 4.354-2.001 4.766-2.795h4.795v12.562h3.737v4.237h-12.71zM895.046 1327a27.995 27.995 0 0 1-2.802 3.218 28.044 28.044 0 0 1-8.937 5.938 28.189 28.189 0 0 1-6.307 1.804l8.449 24.04 8.162-7.928 11.389 1.251-9.954-28.323zM860.693 1336.156a28.048 28.048 0 0 1-8.937-5.938 28.007 28.007 0 0 1-2.802-3.218L839 1355.323l11.389-1.251 8.162 7.928 8.449-24.04a28.192 28.192 0 0 1-6.307-1.804z"/>
    </g>
</svg>
