<svg xmlns="http://www.w3.org/2000/svg" width="71" height="75" viewBox="0 0 71 75">
    <defs>
        <linearGradient id="a" x1="50%" x2="50%" y1="0%" y2="100%">
            <stop offset="0%" stop-color="#17ABA9"/>
            <stop offset="100%" stop-color="#7A306C"/>
        </linearGradient>
    </defs>
    <g fill="url(#a)" fill-rule="nonzero" transform="translate(-261 -1066)">
        <path d="M331.559 1070H261.76c-.327 0-.761.139-.761.466v32.523c0 .327.434.736.761.736h31.78v33.725h-3.799a1.775 1.775 0 0 0 0 3.55h13.854a1.775 1.775 0 0 0 0-3.55h-4.138v-33.725h32.1c.328 0 .442-.41.442-.736v-32.523c0-.327-.114-.466-.441-.466zM274.5 1066h-2a.5.5 0 0 0-.5.5v2a.5.5 0 0 0 .5.5h2a.5.5 0 0 0 .5-.5v-2a.5.5 0 0 0-.5-.5zM297.5 1066h-2a.5.5 0 0 0-.5.5v2a.5.5 0 0 0 .5.5h2a.5.5 0 0 0 .5-.5v-2a.5.5 0 0 0-.5-.5zM319.5 1066h-2a.5.5 0 0 0-.5.5v2a.5.5 0 0 0 .5.5h2a.5.5 0 0 0 .5-.5v-2a.5.5 0 0 0-.5-.5z"/>
    </g>
</svg>
