<svg xmlns="http://www.w3.org/2000/svg" width="61" height="75" viewBox="0 0 61 75">
    <defs>
        <linearGradient id="a" x1="50%" x2="50%" y1="0%" y2="100%">
            <stop offset="0%" stop-color="#17ABA9"/>
            <stop offset="100%" stop-color="#7A306C"/>
        </linearGradient>
    </defs>
    <g fill="url(#a)" fill-rule="nonzero" transform="translate(-1034 -1066)">
        <path d="M1056 1083.763c4.962 0 9-3.984 9-8.882 0-4.897-4.038-8.881-9-8.881-4.963 0-9 3.984-9 8.881 0 4.898 4.037 8.882 9 8.882z"/>
        <path d="M1084.202 1073.074a.913.913 0 0 0-.168.016l-15.428 2.88c-.485.09-.996.528-1.163.995l-1.311 3.693a.881.881 0 0 0 .608 1.16l.546.146c.918 2.053 1.758 4.337 2.253 6.126a40.877 40.877 0 0 1-5.066-1.768c-.36-.153-1.011-.311-1.419-.311h-13.665c-3.336-3-6.512-6.006-7.664-7.365.315-1.365 1.813-4.32 3.376-6.635.576-.85.787-1.874.596-2.883a3.823 3.823 0 0 0-1.61-2.461 3.797 3.797 0 0 0-2.15-.667c-1.272 0-2.457.63-3.171 1.684a46.573 46.573 0 0 0-2.677 4.568c-2.178 4.295-2.63 7.244-1.464 9.563.352.699 1.006 2 7.455 7.925a303.504 303.504 0 0 0 4.617 4.149v43.056c0 2.236 1.811 4.055 4.038 4.055 2.226 0 4.038-1.819 4.038-4.055v-23.233h2.31v23.233c0 2.236 1.812 4.055 4.039 4.055 2.226 0 4.038-1.819 4.038-4.055l-.018-42.16c.522.177 1.072.353 1.633.517 1.745.513 3.186.802 4.403.884.226.016.448.023.66.023 3.258 0 4.615-1.732 5.135-2.764 1.013-2.016.857-4.75-.54-9.043l7.602 2.027c.077.021.154.031.23.031.426 0 .735-.326.735-.776v-11.788c0-.468-.343-.822-.798-.822zM1089.153 1075.868c.134 0 .27-.023.402-.07l4.693-1.7c.597-.217.901-.863.68-1.445a1.162 1.162 0 0 0-1.483-.661l-4.693 1.7c-.597.216-.901.863-.68 1.444.173.453.613.732 1.081.732zM1089.153 1080.803h4.694c.637 0 1.153-.442 1.153-.987 0-.545-.516-.987-1.153-.987h-4.694c-.637 0-1.153.442-1.153.987 0 .545.516.987 1.153.987zM1094.248 1084.547l-4.693-1.7a1.162 1.162 0 0 0-1.482.662 1.115 1.115 0 0 0 .679 1.444l4.693 1.7c.132.048.268.07.401.07.469 0 .909-.28 1.082-.732a1.115 1.115 0 0 0-.68-1.444z"/>
    </g>
</svg>
