<svg xmlns="http://www.w3.org/2000/svg" width="32" height="32" viewBox="0 0 32 32">
    <g fill="#F72C25" fill-rule="nonzero">
        <path d="M29.384 26.02l-6-6.002a2.126 2.126 0 0 0-3.004.014l-.579.58c-.592.591-1.546.608-2.127.036l-.01-.01c-.054-.052-2.037-1.971-6.311-6.311-.573-.581-.556-1.536.036-2.128l.579-.579c.832-.832.838-2.179.014-3.003l-6.001-6c-.842-.843-2.184-.806-3.003.013L1.605 4.003C.049 5.559-.425 7.866.4 9.879c1.684 4.11 3.234 8.658 8.149 13.572 4.908 4.909 9.42 6.448 13.573 8.149 2.013.824 4.32.352 5.876-1.205l1.372-1.373c.834-.833.84-2.177.014-3.003zM29.133 2.867c-3.823-3.823-10.044-3.823-13.867 0a.908.908 0 1 0 1.284 1.284c3.115-3.115 8.184-3.115 11.299 0s3.115 8.184 0 11.3a.908.908 0 1 0 1.284 1.283c3.823-3.823 3.823-10.044 0-13.867z"/>
        <path d="M24.673 6.327a4.542 4.542 0 0 0-6.416 0 .876.876 0 1 0 1.238 1.239 2.789 2.789 0 0 1 3.94 0 2.789 2.789 0 0 1 0 3.939.876.876 0 1 0 1.238 1.238 4.542 4.542 0 0 0 0-6.416z"/>
    </g>
</svg>
