<svg xmlns="http://www.w3.org/2000/svg" width="25" height="25" viewBox="0 0 25 25">
    <g fill="#F72C25" fill-rule="nonzero">
        <path d="M22.528 20.415l-4.6-4.601a1.63 1.63 0 0 0-2.303.01l-.444.445c-.454.454-1.186.466-1.631.027l-.007-.006c-.042-.04-1.562-1.512-4.84-4.84-.438-.445-.426-1.177.028-1.63l.444-.445a1.63 1.63 0 0 0 .011-2.302l-4.6-4.6a1.626 1.626 0 0 0-2.303.01L1.23 3.535A4.142 4.142 0 0 0 .307 8.04c1.29 3.152 2.48 6.638 6.247 10.406 3.763 3.763 7.222 4.943 10.406 6.247a4.141 4.141 0 0 0 4.505-.924l1.052-1.052c.64-.64.645-1.669.011-2.302zM22.807 2.193c-2.923-2.924-7.68-2.924-10.604 0a.694.694 0 1 0 .982.981 6.117 6.117 0 0 1 8.64 0 6.117 6.117 0 0 1 0 8.64.694.694 0 1 0 .982.983c2.924-2.924 2.924-7.68 0-10.604z"/>
        <path d="M19.005 4.995a3.407 3.407 0 0 0-4.813 0 .657.657 0 1 0 .93.93 2.092 2.092 0 0 1 2.954 0c.814.814.814 2.139 0 2.954a.657.657 0 1 0 .929.929 3.407 3.407 0 0 0 0-4.813z"/>
    </g>
</svg>
