<svg xmlns="http://www.w3.org/2000/svg" width="101" height="72" viewBox="0 0 101 72">
    <g fill="none" fill-rule="evenodd">
        <path fill="#040F16" d="M1.033 70.883c-.217.252-.326.57-.326.953H0v-3.352h.819c.206.843.637 1.526 1.291 2.05.654.523 1.445.784 2.373.784 1.16 0 1.936-.331 2.328-.994.127-.225.191-.477.191-.756 0-.597-.204-1.11-.612-1.536-.408-.428-1.106-.829-2.094-1.204-.988-.375-1.735-.719-2.242-1.031-.506-.312-.904-.64-1.196-.986-.514-.608-.77-1.405-.77-2.39 0-.987.409-1.786 1.227-2.4.819-.613 1.814-.92 2.985-.92.662 0 1.225.08 1.689.238.463.159.817.345 1.06.559.128-.192.197-.403.207-.633h.74v3.057h-.764c-.079-.811-.406-1.437-.981-1.878a3.187 3.187 0 0 0-1.995-.661c-.755 0-1.371.16-1.848.48-.477.32-.715.758-.715 1.31 0 .554.222 1.039.667 1.455.446.416 1.354.937 2.727 1.561 1.287.542 2.185 1.092 2.694 1.648.509.555.763 1.241.763 2.058 0 1.15-.39 2.055-1.172 2.715-.782.66-1.728.99-2.838.99s-2.075-.23-2.897-.69a3.15 3.15 0 0 1-.604-.427zm14.394-6.803c-.816 0-1.532.375-2.146 1.125v5.99h1.295v.64h-4.65v-.64h1.288v-7.14H9.92v-.624h3.362v.936c.757-.717 1.577-1.076 2.46-1.076.882 0 1.601.25 2.157.748.202.18.369.405.501.673.837-.947 1.788-1.42 2.853-1.42.705 0 1.333.185 1.884.558.7.482 1.049 1.249 1.049 2.3v5.045h1.295v.64h-4.728v-.64h1.367v-5.291c0-.597-.07-1.008-.207-1.233-.138-.224-.287-.379-.45-.464a1.28 1.28 0 0 0-.6-.127c-.46 0-.884.12-1.27.361a3.03 3.03 0 0 0-.962.962 4 4 0 0 1 .055.632v5.16h1.296v.64h-4.65v-.64h1.288v-5.349c0-.575-.061-.97-.183-1.187-.122-.216-.261-.367-.417-.452a1.231 1.231 0 0 0-.592-.127zm13.082-2.325c-.302 0-.562-.108-.78-.325-.217-.216-.325-.445-.325-.686 0-.405.106-.717.318-.936.212-.22.471-.33.779-.33.487 0 .824.23 1.009.691.058.137.087.285.087.444 0 .323-.106.594-.317.813-.212.22-.47.329-.771.329zm-2.345 9.44h1.288v-7.123h-1.177v-.641h3.283v7.764h1.287v.64h-4.681v-.64zM35.36 72c-1.892 0-2.838-.91-2.838-2.728v-5.2h-.961v-.641h.961v-2.514c.482 0 1.07-.129 1.765-.386.159-.06.272-.113.341-.157v3.057h2.615v.64h-2.615v5.793c0 .504.102.867.306 1.088.204.222.476.333.815.333.53 0 1.007-.244 1.43-.731l.422.386c-.382.488-.9.814-1.558.978a2.786 2.786 0 0 1-.683.082zm2.964-.805h1.288V58.64h-1.367V58h3.433v6.45c.774-.773 1.685-1.159 2.734-1.159.705 0 1.333.186 1.884.559.699.482 1.049 1.249 1.049 2.3v5.045h1.287v.64h-4.641v-.64h1.287v-5.21c0-.64-.065-1.075-.194-1.305-.13-.23-.276-.39-.438-.477-.161-.088-.408-.131-.739-.131-.33 0-.703.104-1.116.312-.414.208-.784.52-1.113.936v5.875h1.288v.64h-4.642v-.64zm20.426-1.882c1.028 1.041 1.849 1.561 2.464 1.561.307 0 .559-.068.755-.205l.294.419c-.472.608-1.151.912-2.039.912-.887 0-1.76-.378-2.619-1.134-.842.756-1.893 1.134-3.151 1.134-1.258 0-2.338-.31-3.239-.928-.9-.62-1.35-1.45-1.35-2.49 0-.865.285-1.613.858-2.243.466-.52 1.06-.9 1.78-1.142-.89-1.117-1.335-2.124-1.335-3.02 0-.895.367-1.603 1.1-2.123a4.075 4.075 0 0 1 2.409-.78c.871 0 1.59.172 2.157.517.567.345.877.808.93 1.389.021.076.032.172.032.287 0 .28-.111.53-.334.752a1.07 1.07 0 0 1-.779.333c-.296 0-.553-.113-.77-.337-.218-.225-.326-.471-.326-.74 0-.525.214-.892.643-1.1-.328-.313-.788-.469-1.379-.469-.59 0-1.04.15-1.35.452-.31.301-.466.71-.466 1.224 0 .767.543 1.813 1.63 3.139 2.066 2.36 3.242 3.694 3.528 4 .393-.914.589-1.982.589-3.203h-1.375v-.641h3.449v.64h-1.272c-.032 1.49-.31 2.756-.834 3.796zm-6.851-1.733a3.462 3.462 0 0 0-.111.92c0 .756.271 1.398.814 1.927.543.528 1.26.792 2.15.792.89 0 1.661-.29 2.313-.87a22.618 22.618 0 0 1-1.288-1.422l-1.446-1.66a58.154 58.154 0 0 1-1.335-1.478c-.53.432-.896 1.03-1.097 1.79zm12.835 3.303c-.217.252-.325.57-.325.953H63.7v-3.352h.819c.206.843.637 1.526 1.291 2.05.655.523 1.446.784 2.373.784 1.16 0 1.936-.331 2.328-.994.128-.225.191-.477.191-.756 0-.597-.204-1.11-.612-1.536-.408-.428-1.106-.829-2.094-1.204-.988-.375-1.735-.719-2.241-1.031-.506-.312-.905-.64-1.196-.986-.514-.608-.771-1.405-.771-2.39 0-.987.409-1.786 1.228-2.4.818-.613 1.813-.92 2.984-.92.662 0 1.225.08 1.689.238.463.159.817.345 1.06.559.128-.192.197-.403.208-.633h.739v3.057h-.763c-.08-.811-.407-1.437-.982-1.878a3.187 3.187 0 0 0-1.995-.661c-.755 0-1.37.16-1.848.48-.476.32-.715.758-.715 1.31 0 .554.223 1.039.668 1.455.445.416 1.353.937 2.726 1.561 1.287.542 2.185 1.092 2.694 1.648.509.555.763 1.241.763 2.058 0 1.15-.39 2.055-1.172 2.715-.782.66-1.728.99-2.838.99s-2.075-.23-2.897-.69a3.15 3.15 0 0 1-.604-.427zm10.181-6.392c.795-.8 1.795-1.2 3-1.2 1.206 0 2.2.399 2.981 1.196.782.796 1.172 1.843 1.172 3.138s-.388 2.348-1.164 3.159c-.776.81-1.77 1.216-2.984 1.216s-2.216-.405-3.008-1.216c-.793-.81-1.189-1.862-1.189-3.155 0-1.293.398-2.339 1.192-3.138zm2.98 6.827c1.071 0 1.7-.753 1.885-2.26.052-.448.079-.93.079-1.445 0-1.156-.127-2.021-.382-2.597-.312-.69-.84-1.035-1.581-1.035-1.07 0-1.698.729-1.884 2.186-.053.443-.08.925-.08 1.446 0 1.16.128 2.037.382 2.629.318.717.845 1.076 1.582 1.076zm10.897-7.246c-.863 0-1.645.413-2.344 1.24v5.883h1.446v.64h-4.8v-.64h1.287v-7.123h-1.295v-.641h3.362v1.051c.794-.794 1.703-1.19 2.726-1.19.704 0 1.33.185 1.875.558.705.482 1.057 1.249 1.057 2.3v5.045h1.288v.64h-4.8v-.64h1.446v-5.21c0-.64-.065-1.075-.195-1.305-.13-.23-.275-.39-.437-.477a1.284 1.284 0 0 0-.616-.131zm6.82 7.164c-.17.12-.265.32-.287.6h-.763l.032-2.473h.731c0 .421.256.854.767 1.298.512.443 1.16.665 1.943.665.785 0 1.283-.235 1.495-.706a1.08 1.08 0 0 0 .087-.428c0-.273-.181-.525-.544-.755-.363-.23-.96-.499-1.789-.806-.829-.306-1.482-.702-1.959-1.187-.477-.484-.715-1.076-.715-1.774 0-.699.302-1.27.906-1.713.604-.444 1.302-.666 2.094-.666.792 0 1.43.203 1.912.608.148-.05.265-.17.35-.361a.543.543 0 0 0 .047-.239h.604v2.293h-.7c-.09-.515-.33-.917-.719-1.204-.389-.288-.846-.431-1.37-.431-.525 0-.93.105-1.213.316-.283.21-.425.467-.425.768s.163.577.489.826c.326.249.787.482 1.383.698.596.216 1.064.407 1.403.571 1.086.542 1.629 1.327 1.629 2.354 0 1.027-.556 1.773-1.669 2.239-.435.18-.877.271-1.327.271-.938 0-1.736-.255-2.393-.764z"/>
        <g fill-rule="nonzero">
            <path fill="#FFF" d="M49.639 4.84L87.64 48.955 90 46.92 49.583 0 11 46.948l2.405 1.98z"/>
            <path fill="#000" d="M72.837 44.898l.705-.612-23.58-27.29-22.504 27.298.719.595 21.801-26.447z"/>
            <path fill="#FFF" d="M49.639 47.16L87.64 3.045 90 5.08 49.583 52 11 5.052l2.405-1.98z"/>
            <path fill="#000" d="M49.978 37.87l22.859-26.455.705.611-23.58 27.291-22.504-27.299.719-.595z"/>
        </g>
    </g>
</svg>
