<svg xmlns="http://www.w3.org/2000/svg" width="111" height="91" viewBox="0 0 111 91">
    <defs>
        <linearGradient id="a" x1="50%" x2="50%" y1="0%" y2="100%">
            <stop offset="0%" stop-color="#17ABA9"/>
            <stop offset="100%" stop-color="#7A306C"/>
        </linearGradient>
    </defs>
    <path fill="url(#a)" fill-rule="nonzero" d="M110.999 50.55c0-2.161-.493-4.225-1.384-6.112-.091-.48-.196-.96-.327-1.445L99.646 19.35l-.066-.213C96.207 9.2 91.407 0 79.235 0H32.7c-12.472 0-16.88 9.426-20.327 19.082l-10.085 23.7C.829 45.094 0 47.738 0 50.55v7.357c0 1.137.136 2.25.394 3.322A5.729 5.729 0 0 0 0 63.308V85.19C0 88.398 2.629 91 5.872 91h12.185c3.24 0 5.87-2.602 5.87-5.81V74.248h63.84V85.19c0 3.208 2.63 5.81 5.873 5.81h11.487c3.245 0 5.873-2.602 5.873-5.81V63.306c0-.733-.145-1.434-.394-2.079.258-1.073.394-2.185.394-3.322V50.55h-.001zm-91.47-29.094c3.838-10.718 6.926-13.99 13.17-13.99h46.534c6.197 0 9.649 3.65 13.156 13.944l7.036 14.107a21.74 21.74 0 0 0-7.482-1.308H19.056c-2.392 0-4.677.38-6.786 1.069l7.258-13.822zM25.571 60.7H12.716c-2.315 0-4.192-1.86-4.192-4.15s1.877-4.148 4.192-4.148h12.856c2.316 0 4.193 1.858 4.193 4.149 0 2.29-1.878 4.149-4.193 4.149zm45.416-.831H41.084c-1.466 0-2.654-1.176-2.654-2.626 0-1.453 1.188-2.629 2.654-2.629h29.904c1.468 0 2.656 1.176 2.656 2.629 0 1.45-1.188 2.626-2.656 2.626zm26.97.831H85.104c-2.317 0-4.193-1.86-4.193-4.15s1.877-4.148 4.193-4.148h12.856c2.316 0 4.194 1.858 4.194 4.149 0 2.29-1.878 4.149-4.194 4.149z"/>
</svg>
